<svg xmlns="http://www.w3.org/2000/svg" viewBox="0 0 500 500"><g id="freepik--Graphics--inject-106"><g style="opacity:0.2"><rect x="293.41" y="48.5" width="150.59" height="18.41" rx="7.34" style="fill:none;stroke:#000;stroke-linejoin:round"></rect><line x1="420.78" y1="52.75" x2="420.78" y2="61.36" style="fill:none;stroke:#000;stroke-linejoin:round;stroke-width:0.5px"></line><line x1="414.09" y1="52.83" x2="406.02" y2="60.9" style="fill:none;stroke:#000;stroke-linejoin:round"></line><line x1="406.02" y1="52.83" x2="414.09" y2="60.9" style="fill:none;stroke:#000;stroke-linejoin:round"></line><path d="M434.88,61.13h0a.68.68,0,0,1-1,.08l-3.31-3,.63-.75,3.55,2.72A.68.68,0,0,1,434.88,61.13Z" style="fill:#263238;stroke:#000;stroke-linejoin:round"></path><path d="M426.38,54.07a3.12,3.12,0,1,0,4.4-.42A3.11,3.11,0,0,0,426.38,54.07Zm4.47,3.69a2.67,2.67,0,1,1-.36-3.76A2.67,2.67,0,0,1,430.85,57.76Z" style="fill:none;stroke:#000;stroke-linejoin:round"></path></g><path d="M154.28,81.79a3.58,3.58,0,0,1-5.12.41L133,67.5a16.11,16.11,0,0,0,1.87-1.91,14.47,14.47,0,0,0,1.52-2.18l17.33,13.27A3.58,3.58,0,0,1,154.28,81.79Z" style="fill:none;stroke:#ccc;stroke-linejoin:round"></path><path d="M132.63,42.52a16,16,0,0,1,4.59,5.89,16.43,16.43,0,1,1-30.9,2.53,16.32,16.32,0,0,1,26.31-8.42ZM133,64.08a14.06,14.06,0,1,1-1.86-19.8A14.05,14.05,0,0,1,133,64.08Z" style="fill:none;stroke:#ccc;stroke-linejoin:round"></path><path d="M391.45,444a2.88,2.88,0,0,1,.21-4.13l13.43-11.37a12.5,12.5,0,0,0,1.33,1.69,12,12,0,0,0,1.58,1.45L395.59,444.1A2.87,2.87,0,0,1,391.45,444Z" style="fill:none;stroke:#ccc;stroke-linejoin:round"></path><path d="M425.09,430.84a13,13,0,0,1-5.19,3,13.56,13.56,0,1,1,5.19-3Zm-17.27-1.94a11.33,11.33,0,1,1,16,.59A11.32,11.32,0,0,1,407.82,428.9Z" style="fill:none;stroke:#ccc;stroke-linejoin:round"></path><g style="opacity:0.2"><line x1="89.74" y1="406.74" x2="66.8" y2="429.69" style="fill:none;stroke:#000;stroke-linejoin:round"></line><line x1="66.8" y1="406.74" x2="89.74" y2="429.69" style="fill:none;stroke:#000;stroke-linejoin:round"></line></g><g style="opacity:0.2"><line x1="472.74" y1="190.74" x2="449.8" y2="213.69" style="fill:none;stroke:#000;stroke-linejoin:round"></line><line x1="449.8" y1="190.74" x2="472.74" y2="213.69" style="fill:none;stroke:#000;stroke-linejoin:round"></line></g><g style="opacity:0.2"><line x1="53.74" y1="59.74" x2="30.8" y2="82.69" style="fill:none;stroke:#000;stroke-linejoin:round"></line><line x1="30.8" y1="59.74" x2="53.74" y2="82.69" style="fill:none;stroke:#000;stroke-linejoin:round"></line></g></g><g id="freepik--Window--inject-106"><rect x="74.53" y="101.25" width="358.67" height="288.19" style="fill:#fff;stroke:#263238;stroke-linejoin:round"></rect><path d="M386.53,352.47H341.79a4.4,4.4,0,0,1-4.4-4.4V296.8" style="fill:#fff;stroke:#263238;stroke-linejoin:round"></path><path d="M414.73,246.29V348.07a4.41,4.41,0,0,1-4.41,4.4h-19.4" style="fill:#fff;stroke:#263238;stroke-linejoin:round"></path><path d="M337.39,293.35V215.67a4.39,4.39,0,0,1,4.4-4.39h68.53a4.4,4.4,0,0,1,4.41,4.39v27.8" style="fill:#fff;stroke:#263238;stroke-linejoin:round"></path><path d="M414.73,215.67V239.4H337.39V215.67a4.39,4.39,0,0,1,4.4-4.39h68.53A4.4,4.4,0,0,1,414.73,215.67Z" style="fill:#fff;stroke:#263238;stroke-linejoin:round"></path><rect x="74.53" y="101.25" width="358.67" height="97.58" style="fill:#fff;stroke:#263238;stroke-linejoin:round"></rect><circle cx="404.44" cy="167.46" r="8.45" transform="translate(-28.33 101.71) rotate(-13.85)" style="fill:#d9d9d9;stroke:#263238;stroke-linejoin:round"></circle><circle cx="379.02" cy="162.82" r="1.13" style="fill:#263238"></circle><path d="M384.57,162.82a1.13,1.13,0,1,0-1.13,1.13A1.14,1.14,0,0,0,384.57,162.82Z" style="fill:#263238"></path><path d="M389,162.82a1.13,1.13,0,1,0-1.13,1.13A1.14,1.14,0,0,0,389,162.82Z" style="fill:#263238"></path><path d="M380.14,167.42a1.13,1.13,0,1,0-1.12,1.13A1.13,1.13,0,0,0,380.14,167.42Z" style="fill:#263238"></path><path d="M384.57,167.42a1.13,1.13,0,1,0-1.13,1.13A1.14,1.14,0,0,0,384.57,167.42Z" style="fill:#263238"></path><path d="M389,167.42a1.13,1.13,0,1,0-1.13,1.13A1.14,1.14,0,0,0,389,167.42Z" style="fill:#263238"></path><path d="M380.14,172a1.13,1.13,0,1,0-1.12,1.13A1.13,1.13,0,0,0,380.14,172Z" style="fill:#263238"></path><path d="M384.57,172a1.13,1.13,0,1,0-1.13,1.13A1.14,1.14,0,0,0,384.57,172Z" style="fill:#263238"></path><path d="M389,172a1.13,1.13,0,1,0-1.13,1.13A1.14,1.14,0,0,0,389,172Z" style="fill:#263238"></path><path d="M325.88,170.83a12.78,12.78,0,0,1-12.16,8.85H197.38" style="fill:#fff;stroke:#263238;stroke-linejoin:round"></path><path d="M223,154.15h90.75a12.76,12.76,0,0,1,12.77,12.76" style="fill:#fff;stroke:#263238;stroke-linejoin:round"></path><path d="M191,179.68H130.41a12.76,12.76,0,0,1-12.76-12.77h0a12.76,12.76,0,0,1,12.76-12.76h88.13" style="fill:#fff;stroke:#263238;stroke-linejoin:round"></path><line x1="294.29" y1="160.04" x2="294.29" y2="171.98" style="fill:none;stroke:#263238;stroke-linejoin:round;stroke-width:0.5px"></line><line x1="285.01" y1="160.15" x2="273.81" y2="171.35" style="fill:none;stroke:#263238;stroke-linejoin:round"></line><line x1="273.81" y1="160.15" x2="285.01" y2="171.35" style="fill:none;stroke:#263238;stroke-linejoin:round"></line><path d="M131,170.19h-1.21l-1.09-7.93h.86l.93,6.75.89-6.74h.87l.87,6.75.9-6.76h.77l-1.08,7.93H132.5l-.75-5.38Z" style="fill:#263238"></path><path d="M138.29,165.77v.8h-1.94v2.82h2.38v.8h-3.26v-7.93h3.26v.8h-2.38v2.71Z" style="fill:#263238"></path><path d="M141.33,162.26c1.23,0,1.72.59,1.72,1.76v.37c0,.84-.24,1.36-.93,1.58.77.21,1.06.82,1.06,1.69v.67a1.63,1.63,0,0,1-1.81,1.86h-1.82v-7.93Zm-.22,3.37c.7,0,1.07-.23,1.07-1.06v-.46c0-.71-.24-1.05-.88-1.05h-.87v2.57Zm.26,3.76c.65,0,.94-.34.94-1.08v-.7c0-.89-.35-1.18-1.11-1.18h-.77v3Z" style="fill:#263238"></path><path d="M149.18,164.16v.22h-.84v-.26c0-.72-.27-1.14-.9-1.14s-.91.42-.91,1.13c0,1.78,2.66,1.95,2.66,4.18,0,1.2-.58,2-1.79,2s-1.78-.78-1.78-2v-.46h.83v.5c0,.72.29,1.14.93,1.14s.93-.42.93-1.14c0-1.76-2.65-1.93-2.65-4.17,0-1.22.56-2,1.75-2S149.18,163,149.18,164.16Z" style="fill:#263238"></path><path d="M152.79,165.77v.8h-1.94v2.82h2.38v.8H150v-7.93h3.27v.8h-2.38v2.71Z" style="fill:#263238"></path><path d="M154.94,168.59l-.3,1.6h-.82l1.52-7.93h1.28l1.52,7.93h-.89l-.3-1.6Zm.11-.76h1.77l-.89-4.57Z" style="fill:#263238"></path><path d="M160.6,162.26c1.24,0,1.76.63,1.76,1.81v.65c0,.87-.3,1.42-1,1.63.72.22,1,.8,1,1.65v1.24a2.07,2.07,0,0,0,.15.95h-.89a2.1,2.1,0,0,1-.15-1V168c0-.89-.42-1.18-1.15-1.18h-.63v3.39h-.88v-7.93Zm-.23,3.74c.7,0,1.12-.23,1.12-1.09v-.76c0-.71-.26-1.09-.92-1.09h-.86V166Z" style="fill:#263238"></path><path d="M166.8,164.17v.72H166v-.76c0-.71-.28-1.15-.93-1.15s-.93.44-.93,1.15v4.19c0,.72.3,1.15.93,1.15s.93-.43.93-1.15v-1h.84v1c0,1.2-.57,2-1.79,2s-1.78-.79-1.78-2v-4.11c0-1.2.56-2,1.78-2S166.8,163,166.8,164.17Z" style="fill:#263238"></path><path d="M168.49,166.62v3.57h-.89v-7.93h.89v3.57h1.95v-3.57h.88v7.93h-.88v-3.57Z" style="fill:#263238"></path><path d="M313.85,171.66h0a1,1,0,0,1-1.35.11l-4.59-4.18.87-1.05,4.92,3.77A1,1,0,0,1,313.85,171.66Z" style="fill:#263238;stroke:#263238;stroke-linejoin:round"></path><path d="M302.06,161.87a4.33,4.33,0,1,0,6.1-.58A4.32,4.32,0,0,0,302.06,161.87Zm6.19,5.12a3.7,3.7,0,1,1-.49-5.22A3.7,3.7,0,0,1,308.25,167Z" style="fill:#263238;stroke:#263238;stroke-linejoin:round"></path><rect x="422.25" y="101.25" width="10.94" height="288.19" style="fill:#d9d9d9;stroke:#263238;stroke-linejoin:round"></rect><rect x="422.25" y="158.71" width="10.94" height="28.27" style="fill:#8f8f8f;stroke:#263238;stroke-linejoin:round"></rect><rect x="74.53" y="101.25" width="358.67" height="33.74" style="fill:#FCA311;stroke:#263238;stroke-linejoin:round"></rect><rect x="135.89" y="101.25" width="297.31" height="11.86" style="fill:#263238;stroke:#263238;stroke-linejoin:round"></rect><line x1="426.32" y1="104.23" x2="420.05" y2="110.51" style="fill:none;stroke:#fff;stroke-linejoin:round"></line><line x1="420.05" y1="104.23" x2="426.32" y2="110.51" style="fill:none;stroke:#fff;stroke-linejoin:round"></line><rect x="403.47" y="104.76" width="4.62" height="4.62" style="fill:#263238;stroke:#fff;stroke-linejoin:round"></rect><rect x="401.25" y="105.87" width="4.62" height="4.62" style="fill:#263238;stroke:#fff;stroke-linejoin:round"></rect><line x1="386.84" y1="107.6" x2="378.85" y2="107.6" style="fill:none;stroke:#fff;stroke-linejoin:round"></line><line x1="142.22" y1="104.01" x2="142.22" y2="111.18" style="fill:none;stroke:#fff;stroke-linejoin:round"></line><line x1="145.81" y1="107.59" x2="138.64" y2="107.59" style="fill:none;stroke:#fff;stroke-linejoin:round"></line><line x1="120.05" y1="218.89" x2="193.86" y2="218.89" style="fill:#fff;stroke:#263238;stroke-linejoin:round"></line><line x1="120.05" y1="225.34" x2="213.78" y2="225.34" style="fill:#fff;stroke:#263238;stroke-linejoin:round"></line><line x1="120.05" y1="232.95" x2="313.37" y2="232.95" style="fill:#fff;stroke:#263238;stroke-linejoin:round"></line><line x1="120.05" y1="239.98" x2="313.37" y2="239.98" style="fill:#fff;stroke:#263238;stroke-linejoin:round"></line><line x1="120.05" y1="247.01" x2="313.37" y2="247.01" style="fill:#fff;stroke:#263238;stroke-linejoin:round"></line><line x1="120.05" y1="263.42" x2="193.86" y2="263.42" style="fill:#fff;stroke:#263238;stroke-linejoin:round"></line><line x1="120.05" y1="269.86" x2="213.78" y2="269.86" style="fill:#fff;stroke:#263238;stroke-linejoin:round"></line><line x1="120.05" y1="277.48" x2="313.37" y2="277.48" style="fill:#fff;stroke:#263238;stroke-linejoin:round"></line><line x1="120.05" y1="284.51" x2="313.37" y2="284.51" style="fill:#fff;stroke:#263238;stroke-linejoin:round"></line><line x1="120.05" y1="291.54" x2="313.37" y2="291.54" style="fill:#fff;stroke:#263238;stroke-linejoin:round"></line><line x1="120.05" y1="307.94" x2="193.86" y2="307.94" style="fill:#fff;stroke:#263238;stroke-linejoin:round"></line><line x1="120.05" y1="314.39" x2="213.78" y2="314.39" style="fill:#fff;stroke:#263238;stroke-linejoin:round"></line><line x1="120.05" y1="322" x2="313.37" y2="322" style="fill:#fff;stroke:#263238;stroke-linejoin:round"></line><line x1="120.05" y1="329.03" x2="313.37" y2="329.03" style="fill:#fff;stroke:#263238;stroke-linejoin:round"></line><line x1="120.05" y1="336.06" x2="313.37" y2="336.06" style="fill:#fff;stroke:#263238;stroke-linejoin:round"></line><line x1="120.05" y1="352.46" x2="193.86" y2="352.46" style="fill:#fff;stroke:#263238;stroke-linejoin:round"></line><line x1="120.05" y1="358.91" x2="213.78" y2="358.91" style="fill:#fff;stroke:#263238;stroke-linejoin:round"></line><line x1="120.05" y1="366.52" x2="313.37" y2="366.52" style="fill:#fff;stroke:#263238;stroke-linejoin:round"></line><line x1="120.05" y1="373.55" x2="313.37" y2="373.55" style="fill:#fff;stroke:#263238;stroke-linejoin:round"></line><line x1="120.05" y1="380.58" x2="313.37" y2="380.58" style="fill:#fff;stroke:#263238;stroke-linejoin:round"></line><line x1="342.46" y1="247.67" x2="377.22" y2="247.67" style="fill:#fff;stroke:#263238;stroke-linejoin:round"></line><line x1="342.46" y1="252.34" x2="377.22" y2="252.34" style="fill:#fff;stroke:#263238;stroke-linejoin:round"></line><line x1="342.46" y1="257.02" x2="410.3" y2="257.02" style="fill:#fff;stroke:#263238;stroke-linejoin:round"></line><line x1="342.46" y1="261.7" x2="410.3" y2="261.7" style="fill:#fff;stroke:#263238;stroke-linejoin:round"></line><line x1="342.46" y1="266.38" x2="410.3" y2="266.38" style="fill:#fff;stroke:#263238;stroke-linejoin:round"></line><line x1="342.46" y1="271.06" x2="410.3" y2="271.06" style="fill:#fff;stroke:#263238;stroke-linejoin:round"></line><line x1="342.46" y1="275.74" x2="410.3" y2="275.74" style="fill:#fff;stroke:#263238;stroke-linejoin:round"></line><line x1="342.46" y1="280.42" x2="410.3" y2="280.42" style="fill:#fff;stroke:#263238;stroke-linejoin:round"></line><line x1="342.46" y1="285.1" x2="410.3" y2="285.1" style="fill:#fff;stroke:#263238;stroke-linejoin:round"></line><line x1="342.46" y1="289.78" x2="410.3" y2="289.78" style="fill:#fff;stroke:#263238;stroke-linejoin:round"></line><line x1="342.46" y1="300.81" x2="377.22" y2="300.81" style="fill:#fff;stroke:#263238;stroke-linejoin:round"></line><line x1="342.46" y1="305.48" x2="377.22" y2="305.48" style="fill:#fff;stroke:#263238;stroke-linejoin:round"></line><line x1="342.46" y1="310.16" x2="410.3" y2="310.16" style="fill:#fff;stroke:#263238;stroke-linejoin:round"></line><line x1="342.46" y1="314.84" x2="410.3" y2="314.84" style="fill:#fff;stroke:#263238;stroke-linejoin:round"></line><line x1="342.46" y1="319.52" x2="410.3" y2="319.52" style="fill:#fff;stroke:#263238;stroke-linejoin:round"></line><line x1="342.46" y1="324.2" x2="410.3" y2="324.2" style="fill:#fff;stroke:#263238;stroke-linejoin:round"></line><line x1="342.46" y1="328.88" x2="410.3" y2="328.88" style="fill:#fff;stroke:#263238;stroke-linejoin:round"></line><line x1="342.46" y1="333.56" x2="410.3" y2="333.56" style="fill:#fff;stroke:#263238;stroke-linejoin:round"></line><line x1="342.46" y1="338.24" x2="410.3" y2="338.24" style="fill:#fff;stroke:#263238;stroke-linejoin:round"></line><line x1="342.46" y1="342.92" x2="410.3" y2="342.92" style="fill:#fff;stroke:#263238;stroke-linejoin:round"></line></g><g id="freepik--Floor--inject-106"><line x1="441.28" y1="456.93" x2="453.82" y2="456.93" style="fill:none;stroke:#263238;stroke-linejoin:round"></line><line x1="115.26" y1="456.93" x2="432.92" y2="456.93" style="fill:none;stroke:#263238;stroke-linejoin:round"></line><line x1="45.04" y1="456.93" x2="106.9" y2="456.93" style="fill:none;stroke:#263238;stroke-linejoin:round"></line></g><g id="freepik--Character--inject-106"><path d="M252.33,437.42s10.7.63,13.22,0,7.56-4.72,8.19-1.57-2.83,7.56-5,10.07-11,4.73-13.54,6-6.3,4.41-9.45,4.41-5-10.4-5-10.4,9.44-5.66,12-9.76" style="fill:#fff;stroke:#263238;stroke-linejoin:round"></path><path d="M273.18,434.9c-6.42,11.84-17,13.85-17,13.85l-13.4,4.47c.78,1.73,1.76,3.1,2.89,3.1,3.15,0,6.93-3.15,9.45-4.41s11.34-3.47,13.54-6,5.67-6.92,5-10.07A1.41,1.41,0,0,0,273.18,434.9Z" style="fill:#fff;stroke:#263238;stroke-linejoin:round"></path><path d="M138.79,429.43s-8.2,9.29-8.9,12c-.65,2.6,5.61,6.38,7.23,7.52a56.15,56.15,0,0,0,13.82,6.94c1.74.6,10.28,2.61,9.16-1.62-.83-3.13-7.39-6.74-8.22-8.58s-2.2-5.43-2.2-5.43Z" style="fill:#fff;stroke:#263238;stroke-linejoin:round"></path><path d="M137.12,449a56.15,56.15,0,0,0,13.82,6.94c1.51.52,8.15,2.1,9.14-.26-3-.17-8.76-1.12-16.13-5.33A99.69,99.69,0,0,1,130.06,441a4.72,4.72,0,0,0-.17.48C129.24,444.07,135.5,447.85,137.12,449Z" style="fill:#fff;stroke:#263238;stroke-linejoin:round"></path><path d="M161,312.83,164.41,338l2.89,53.11s-8.82,8.5-13.85,14.17-16.51,25.44-16.51,25.44.91,4.95,6.55,8.32,8.7,2.85,8.7,2.85l4.07-7.09,1.46-3.2s32.89-31.67,33.52-35.77,3.89-48.42,3.89-48.42l25.71,37.72S224,410,226.5,416s12.92,25.51,12.92,25.51l1.26,4.4a8.24,8.24,0,0,0,7.87-1.57,35.24,35.24,0,0,0,5.69-6.8l-3.49-4.22-.63-2.84s-8.5-50.7-10.39-56.68S214.8,316,214.8,316l-5-13.85s-4.72,3.14-19.21,7.55S161,312.83,161,312.83Z" style="fill:#263238;stroke:#263238;stroke-linejoin:round"></path><path d="M193.07,318.19c10.56-4.82,15.55-9.63,17.88-12.78l-1.19-3.28s-4.72,3.14-19.21,7.55c-13,3.94-26.39,3.36-29.1,3.19l-.49.07.93,6.73A40.47,40.47,0,0,0,193.07,318.19Z" style="fill:#FCA311;stroke:#263238;stroke-linejoin:round"></path><path d="M155.44,239.22l-24.8,18.42,28.1,52.67a7.84,7.84,0,0,0,2.84,5c2.6,2.13,19.6,1.66,25.74-.23a105.34,105.34,0,0,0,18.19-8.27c2.6-1.65,6.14-5.2,5.19-8.27a26.17,26.17,0,0,0-2.59-5.66l-5-14.41s19.6,1.18,22.2,1.18,11.57-22.67,11.57-22.67-2.6-.24-3.54-1.89A15.88,15.88,0,0,1,232,251.5a77.69,77.69,0,0,1-8.5,4.26c-5,2.12-10.16,2.59-12.28,1.65s-14.65-12.28-17.48-15.83-3.31-5-4.25-5-18.42,1.19-20.55,1.19S155.44,239.22,155.44,239.22Z" style="fill:#FCA311;stroke:#263238;stroke-linejoin:round"></path><path d="M233.38,255.05A15.56,15.56,0,0,1,232,251.6l-.74.85s-3.78,2.83-2.83,6.85c.59,2.51,3.49,3.36,6.05,3.58,1.44-3.39,2.45-5.94,2.45-5.94S234.32,256.7,233.38,255.05Z" style="fill:#FCA311;stroke:#263238;stroke-linejoin:round"></path><line x1="193.32" y1="250.19" x2="192.05" y2="246.54" style="fill:#fff;stroke:#263238;stroke-linejoin:round"></line><line x1="203.15" y1="278.43" x2="194.43" y2="253.39" style="fill:#fff;stroke:#263238;stroke-linejoin:round"></line><path d="M155.67,329.53h0a13.32,13.32,0,0,1-1.51-19.06L251,199.36l14.8,12.25L174.68,327.45A13.33,13.33,0,0,1,155.67,329.53Z" style="fill:#263238;stroke:#263238;stroke-linejoin:round"></path><path d="M225.24,228.92l-71.08,81.55a13.32,13.32,0,1,0,20.52,17L241.9,242Z" style="fill:#fff;stroke:#263238;stroke-linejoin:round"></path><path d="M331.78,116.88a61.09,61.09,0,1,0,8.09,86A61.09,61.09,0,0,0,331.78,116.88ZM259.47,204.2a52.28,52.28,0,1,1,73.61-6.93A52.28,52.28,0,0,1,259.47,204.2Z" style="fill:#263238;stroke:#263238;stroke-linejoin:round"></path><path d="M236.92,256.94l9-14.17s3.3-6.38,4.25-7.56,4.72-2.6,1.65-2.6-4,1.89-4,1.89v-5c0-1.42,0-4.93-1.88-4.69s-1.21,3-1.57,5.7c-.16,1.19-1.51,6.58-1.51,6.58l-2-7.95a1.62,1.62,0,0,0-1.76-1.24c-.39.06-.69.24-.69.68a63.69,63.69,0,0,0,1.18,6.38l-.73,4s-1-6.25-2.45-7.91c-.64-.73-1.76.62-1.29,1.8s.69,7.82.69,7.82l-.24,2.83s-1.65-2.83-2.59-4.25-2.37-.71-1.66,1.42,2.36,5.67,2.36,5.67L232,251.5S229.36,259.53,236.92,256.94Z" style="fill:#fff;stroke:#263238;stroke-linejoin:round"></path><line x1="247.78" y1="234.5" x2="246.13" y2="239.22" style="fill:#fff;stroke:#263238;stroke-linejoin:round"></line><path d="M135.1,254.74s-5.64,1.49-5.64,3.85,0,51.49-.24,53.14,51.49-5.67,51.49-5.67l1.18-8-31.65-6.38L150,269" style="fill:#FCA311;stroke:#263238;stroke-linejoin:round"></path><path d="M176.69,297l-.23,9.55.16.1,4.09-.57,1.18-8Z" style="fill:#FCA311;stroke:#263238;stroke-linejoin:round"></path><path d="M181.89,298s6.61-8.5,9.45-8.5,7.08.24,8,.24,3.07-.48,1.89,1.18-5.2,1.41-5.2,1.41l5.26,2.87a2.67,2.67,0,0,1,.68,4.18l0,0c-1.19,1.18-4.26,1.18-4.26,1.18s-3.3,5.43-5.43,5.9-11.1-1.65-11.1-1.65Z" style="fill:#fff;stroke:#263238;stroke-linejoin:round"></path><polygon points="176.35 254.72 176.96 239.24 170.93 237.23 171.93 243.46 176.35 254.72" style="fill:#FCA311;stroke:#263238;stroke-linejoin:round"></polygon><polygon points="176.96 239.24 181.38 248.29 176.75 247.88 176.96 239.24" style="fill:#FCA311;stroke:#263238;stroke-linejoin:round"></polygon><path d="M179.77,227.39c-2,.6-6.84,12.26-6.84,12.26l3.42,15.07-5.42-7.64-1.49-7.34-12.78-5.32.2-8.44a28.6,28.6,0,0,1-3.34-2.12,21,21,0,0,1-5.71-5.92c-2.81-4.82-6.83-12.25-.6-20.29,6-7.76,12.22-8.22,19-8.61l.74,0s7.84,4.83,8,7.24,1.21,5.83,3.42,7.23,5.22-.2,5.22,2.81a7.19,7.19,0,0,1-2.42,5s2,9.25,3,12.26S181.78,226.78,179.77,227.39Z" style="fill:#fff;stroke:#263238;stroke-linejoin:round"></path><path d="M173.81,203.73c.52.79.64,1.63.26,1.87s-1.09-.2-1.6-1-.64-1.63-.27-1.87S173.29,202.94,173.81,203.73Z" style="fill:#263238"></path><path d="M169.12,203.27s.2-3.42,3.41-3.42" style="fill:none;stroke:#263238;stroke-linejoin:round"></path><path d="M178.36,215.33s-5.42,1.2-6.43-2" style="fill:none;stroke:#263238;stroke-linejoin:round"></path><path d="M165.1,196.24c1.81,1.8-4.83,6.22-5.83,8.24s.81,5.22,1,6.63-4.61,5.42-4.61,5.42l-1.82,1.81,1.41,5.63s-.64,0-1.73-.11a21,21,0,0,1-5.71-5.92c-2.81-4.82-6.83-12.25-.6-20.29,6-7.76,12.22-8.22,19-8.61-1.17.79-2.65,1.14-3.49,2C161.48,192.21,163.29,194.42,165.1,196.24Z" style="fill:#a6a6a6;stroke:#263238;stroke-linejoin:round"></path><path d="M158.07,217.34s-3-4.62-6.64-2,3,8.64,4.22,9.64,5-2.81,5-2.81a9.17,9.17,0,0,0,6,3.82" style="fill:#fff;stroke:#263238;stroke-linejoin:round"></path><path d="M161.68,192.62s-8.64,9.65-10.85,14.07a73.52,73.52,0,0,0-3.82,9.64s-4.42-.4-7-3.21.2-13.87,5.22-19.29a40.77,40.77,0,0,1,10.86-8.24s-6.43.2-4-1.61,8.44-2.61,12.46-.6a4.28,4.28,0,0,1,2.41,5.62Z" style="fill:#263238;stroke:#263238;stroke-linejoin:round"></path><polygon points="155.45 233.21 151.31 242 167.51 251.3 170.25 239.14 155.45 233.21" style="fill:#FCA311;stroke:#263238;stroke-linejoin:round"></polygon></g></svg>