<?xml version="1.0" encoding="UTF-8"?>
<svg version="1.1" xmlns="http://www.w3.org/2000/svg" width="512" height="512">
<path d="M0 0 C168.96 0 337.92 0 512 0 C512 168.96 512 337.92 512 512 C343.04 512 174.08 512 0 512 C0 343.04 0 174.08 0 0 Z " fill="#FED43D" transform="translate(0,0)"/>
<path d="M0 0 C2.37763977 2.05674744 2.37763977 2.05674744 2.8289814 3.88182259 C2.99703995 6.36819839 2.99524475 8.80990112 2.94526672 11.30162048 C2.94599686 12.24815491 2.94672699 13.19468933 2.94747925 14.16990662 C2.94399151 17.30333968 2.90507355 20.43529234 2.86592102 23.56846619 C2.85659714 25.7389342 2.84947902 27.90941273 2.84448242 30.07989502 C2.82537936 35.79631027 2.7762494 41.51209166 2.72096252 47.22825623 C2.66984173 53.05967127 2.64698367 58.8911886 2.6217804 64.72276306 C2.56813441 76.16770323 2.48278111 87.61217265 2.37763977 99.05674744 C3.45360413 98.44041443 4.52956848 97.82408142 5.63813782 97.18907166 C7.07593287 96.37132939 8.51384608 95.55379485 9.95185852 94.73643494 C11.01092407 94.12868225 11.01092407 94.12868225 12.09138489 93.50865173 C30.28075442 83.19698037 50.5719306 79.10578758 71.37763977 80.05674744 C72.19796692 80.09251892 73.01829407 80.12829041 73.86347961 80.16514587 C97.7587537 81.37113318 120.40199239 87.99809149 139.37763977 103.05674744 C140.17766418 103.69072449 140.17766418 103.69072449 140.99385071 104.33750916 C166.61462304 124.86413462 182.22986005 153.10860609 186.98945618 185.51426697 C187.67781979 191.79612615 187.67356574 198.05598354 187.62763977 204.36924744 C187.62387329 205.05161469 187.62010681 205.73398193 187.6162262 206.43702698 C187.46311749 230.11241253 183.23812359 251.38779074 171.37763977 272.05674744 C171.02830383 272.6674408 170.6789679 273.27813416 170.31904602 273.90733337 C165.02340982 282.99041635 158.70550538 290.55336409 151.37763977 298.05674744 C150.72279602 298.77346619 150.06795227 299.49018494 149.39326477 300.22862244 C130.96547367 319.91643344 102.15201784 331.09512025 75.49482727 332.46299744 C54.34111732 332.98799973 33.97097911 329.53284535 15.37763977 319.05674744 C14.42373352 318.52436462 13.46982727 317.99198181 12.48701477 317.44346619 C4.74844338 312.81137845 -1.84041437 306.96360351 -8.62236023 301.05674744 C-8.95236023 309.30674744 -9.28236023 317.55674744 -9.62236023 326.05674744 C-30.41236023 326.05674744 -51.20236023 326.05674744 -72.62236023 326.05674744 C-72.62236023 220.45674744 -72.62236023 114.85674744 -72.62236023 6.05674744 C-61.07236023 4.73674744 -49.52236023 3.41674744 -37.62236023 2.05674744 C-28.16668395 0.83378114 -28.16668395 0.83378114 -18.71611023 -0.42762756 C-5.40567131 -1.94439851 -5.40567131 -1.94439851 0 0 Z " fill="#222121" transform="translate(200.6223602294922,89.94325256347656)"/>
<path d="M0 0 C0.61359375 0.54011719 1.2271875 1.08023438 1.859375 1.63671875 C2.84164062 2.46236328 2.84164062 2.46236328 3.84375 3.3046875 C14.95895834 13.40746407 21.68693969 28.59052694 22.42578125 43.50390625 C22.45322038 45.83968295 22.45137821 48.17596721 22.421875 50.51171875 C22.41164307 51.73826172 22.40141113 52.96480469 22.39086914 54.22851562 C22.17239825 63.56149319 21.03430567 71.18062508 16.859375 79.63671875 C16.36308594 80.6834375 15.86679687 81.73015625 15.35546875 82.80859375 C8.35745497 96.09638859 -1.61837822 103.91063153 -15.140625 109.63671875 C-15.95789063 110.00667969 -16.77515625 110.37664062 -17.6171875 110.7578125 C-30.79784627 115.34859922 -49.91393697 113.87449284 -62.35546875 108.16015625 C-78.60223264 99.18653382 -87.65779705 86.65145455 -93.25390625 69.15625 C-94.71944602 63.0177112 -94.50919248 56.72414276 -94.515625 50.44921875 C-94.54011719 49.21107422 -94.56460938 47.97292969 -94.58984375 46.69726562 C-94.64178184 30.17229702 -88.91761086 15.92866689 -77.5625 3.92578125 C-57.36292578 -15.16607439 -22.06546147 -18.09914918 0 0 Z " fill="#FED43D" transform="translate(293.140625,245.36328125)"/>
</svg>
