<?xml version="1.0" encoding="UTF-8"?>
<svg version="1.1" xmlns="http://www.w3.org/2000/svg" width="350" height="350">
<path d="M0 0 C115.5 0 231 0 350 0 C350 115.5 350 231 350 350 C234.5 350 119 350 0 350 C0 234.5 0 119 0 0 Z " fill="#7049B1" transform="translate(0,0)"/>
<path d="M0 0 C17.82 0 35.64 0 54 0 C54.40108809 24.92539673 54.40108809 24.92539673 54.48828125 35.56054688 C54.54803514 42.81446585 54.6186723 50.06712119 54.75439453 57.32006836 C54.86315134 63.16867834 54.92286252 69.01593342 54.94877243 74.86547661 C54.96723269 77.09556856 55.00328418 79.32558729 55.05730057 81.55510139 C55.46374646 99.02798164 55.46374646 99.02798164 51.88972473 103.8430481 C49.31373393 105.67779255 46.94292648 106.86813129 44 108 C43.04794678 108.62874023 42.09589355 109.25748047 41.11499023 109.90527344 C40.35387939 110.38512695 39.59276855 110.86498047 38.80859375 111.359375 C37.93452881 111.91294678 37.06046387 112.46651855 36.15991211 113.03686523 C34.81231812 113.88486694 34.81231812 113.88486694 33.4375 114.75 C27.90445528 118.23383856 22.38031233 121.71597649 16.96875 125.38671875 C16.19990479 125.90331055 15.43105957 126.41990234 14.63891602 126.95214844 C13.20666099 127.91852745 11.78214168 128.89650583 10.36694336 129.88769531 C8.43359375 131.18359375 8.43359375 131.18359375 5 133 C3.35 132.67 1.7 132.34 0 132 C0 88.44 0 44.88 0 0 Z " fill="#FEFEFE" transform="translate(193,86)"/>
<path d="M0 0 C-1.34711125 4.37893296 -3.0610979 8.29643584 -5.1875 12.3515625 C-5.49067139 12.93287933 -5.79384277 13.51419617 -6.10620117 14.11312866 C-7.06666142 15.95262017 -8.0331525 17.78885905 -9 19.625 C-9.64885231 20.86436625 -10.29729353 22.10394782 -10.9453125 23.34375 C-12.13413575 25.6180821 -13.32577511 27.89084148 -14.51953125 30.16259766 C-15.70321982 32.43120396 -16.86595299 34.70632077 -18 37 C-21.49107379 35.83630874 -21.85222763 35.11026462 -23.6875 32.0625 C-24.12449219 31.35222656 -24.56148437 30.64195312 -25.01171875 29.91015625 C-26 28 -26 28 -26 26 C-38.74228394 34.03381874 -51.46168976 42.10287179 -64.16650391 50.19580078 C-67.04123603 52.02625662 -69.91694994 53.85516031 -72.79296875 55.68359375 C-73.74131592 56.28695557 -74.68966309 56.89031738 -75.66674805 57.51196289 C-77.5353567 58.69946731 -79.40528416 59.8848994 -81.27661133 61.06811523 C-85.31845246 63.62840002 -89.3364121 66.20619702 -93.28125 68.9140625 C-93.91869141 69.34549561 -94.55613281 69.77692871 -95.21289062 70.22143555 C-96.85917096 71.34167084 -98.49272806 72.48054373 -100.125 73.62109375 C-103.79129631 75.37952119 -105.0602343 74.94760674 -109 74 C-112.11325857 72.89183448 -115.14457799 71.61265208 -118.18359375 70.31640625 C-119.51075661 69.75895721 -119.51075661 69.75895721 -120.86473083 69.19024658 C-122.75130546 68.39654038 -124.63659433 67.5997722 -126.52069092 66.80020142 C-129.44683696 65.55853801 -132.37656382 64.3256754 -135.30712891 63.09448242 C-143.4949433 59.64754183 -151.66890417 56.17709166 -159.77734375 52.546875 C-160.83832275 52.07306396 -161.89930176 51.59925293 -162.99243164 51.11108398 C-164.85548824 50.27178543 -166.71321993 49.42051899 -168.56420898 48.55493164 C-169.36544189 48.19262451 -170.1666748 47.83031738 -170.9921875 47.45703125 C-171.65589355 47.14741455 -172.31959961 46.83779785 -173.00341797 46.51879883 C-177.9136886 45.24289701 -182.63718735 47.95451289 -187.09765625 49.8515625 C-187.79283859 50.14275467 -188.48802094 50.43394684 -189.20426941 50.73396301 C-191.4921598 51.69338667 -193.77729243 52.65920586 -196.0625 53.625 C-197.65376775 54.29353496 -199.24524224 54.96157804 -200.83691406 55.62915039 C-204.17283355 57.02871429 -207.50783335 58.43043931 -210.84228516 59.83349609 C-218.49937953 63.05291283 -226.169017 66.24223118 -233.83786011 69.43353271 C-237.68927111 71.03654532 -241.53992785 72.64136731 -245.390625 74.24609375 C-246.68261347 74.78443275 -247.97460524 75.32276382 -249.26660156 75.86108398 C-250.16862305 76.23692627 -251.07064453 76.61276855 -252 77 C-254.98932771 73.17097349 -257.94236932 69.01992091 -258.03833008 63.99145508 C-256.31027908 60.67715647 -252.9615998 59.91353916 -249.63671875 58.63671875 C-248.86951508 58.32757538 -248.1023114 58.01843201 -247.31185913 57.69992065 C-244.775878 56.68144072 -242.2319877 55.68451566 -239.6875 54.6875 C-237.03253762 53.62925291 -234.37956886 52.56610746 -231.72660828 51.50285339 C-229.90159894 50.77199543 -228.07583214 50.04302627 -226.24934387 49.31587219 C-220.0269395 46.83410715 -213.84368796 44.27166863 -207.6796875 41.6484375 C-206.45452171 41.12879173 -206.45452171 41.12879173 -205.2046051 40.59864807 C-202.05584764 39.26263722 -198.90730212 37.92646329 -195.76596069 36.5730896 C-193.60943002 35.64511473 -191.44794564 34.729679 -189.28515625 33.81640625 C-188.66273041 33.54424286 -188.04030457 33.27207947 -187.39901733 32.9916687 C-181.32963035 30.4526584 -176.05792403 29.03044429 -169.74072266 31.27246094 C-168.20719011 31.90749605 -166.68187092 32.56262412 -165.1640625 33.234375 C-164.33480255 33.58390732 -163.5055426 33.93343964 -162.65115356 34.29356384 C-159.96830557 35.42900238 -157.29713698 36.58961051 -154.625 37.75 C-152.78108775 38.53292646 -150.93635525 39.31392386 -149.09082031 40.09301758 C-141.57319187 43.27570033 -134.08035714 46.51391587 -126.61105347 49.80838013 C-124.76916123 50.61981031 -122.92443047 51.4247879 -121.07958984 52.22949219 C-118.91353981 53.17799276 -116.75448579 54.14268933 -114.60400391 55.12597656 C-113.65702637 55.54202148 -112.71004883 55.95806641 -111.734375 56.38671875 C-110.53119629 56.93138794 -110.53119629 56.93138794 -109.30371094 57.48706055 C-105.6663556 58.29694647 -103.34091555 56.76476534 -100.22094727 54.98535156 C-99.67494873 54.6240918 -99.1289502 54.26283203 -98.56640625 53.890625 C-97.92936768 53.47321045 -97.2923291 53.0557959 -96.63598633 52.62573242 C-95.95173584 52.17174072 -95.26748535 51.71774902 -94.5625 51.25 C-93.03701496 50.25045205 -91.51094421 49.2517976 -89.984375 48.25390625 C-89.17548828 47.7242627 -88.36660156 47.19461914 -87.53320312 46.64892578 C-83.14796333 43.79446264 -78.72980691 40.99198355 -74.3125 38.1875 C-72.94279053 37.31726196 -72.94279053 37.31726196 -71.54541016 36.42944336 C-69.66546319 35.23503358 -67.78541645 34.04078084 -65.90527344 32.84667969 C-62.89624534 30.9340504 -59.88926582 29.01823624 -56.8828125 27.1015625 C-55.88725342 26.46710205 -54.89169434 25.8326416 -53.8659668 25.17895508 C-51.95828911 23.96309881 -50.05088585 22.74681182 -48.14379883 21.5300293 C-47.28036865 20.98000244 -46.41693848 20.42997559 -45.52734375 19.86328125 C-44.77187256 19.38157471 -44.01640137 18.89986816 -43.23803711 18.40356445 C-40.84453689 16.90250273 -38.42700129 15.44615174 -36 14 C-37.0841347 10.92828502 -38.30498007 8.5425299 -40.125 5.8125 C-42 3 -42 3 -42 1 C-27.99623563 0.39727388 -14.018851 -0.19058861 0 0 Z " fill="#FCFBFD" transform="translate(304,168)"/>
<path d="M0 0 C18.15 0 36.3 0 55 0 C55 29.37 55 58.74 55 89 C36.49337662 82.06001623 36.49337662 82.06001623 29.16015625 79.16796875 C27.93249794 78.68484978 27.93249794 78.68484978 26.68003845 78.19197083 C24.99060083 77.52654467 23.30143492 76.86042825 21.61254883 76.19360352 C19.01431496 75.16848894 16.41441276 74.14768161 13.81445312 73.12695312 C12.15875233 72.47421658 10.50314944 71.82123165 8.84765625 71.16796875 C7.68388206 70.71178413 7.68388206 70.71178413 6.49659729 70.24638367 C1.1144701 68.1144701 1.1144701 68.1144701 0 67 C-0.09417773 64.91380978 -0.11742878 62.82439523 -0.11352539 60.73608398 C-0.11367142 60.08244873 -0.11381744 59.42881348 -0.1139679 58.75537109 C-0.11326883 56.58557872 -0.10547678 54.41587121 -0.09765625 52.24609375 C-0.09579205 50.74536689 -0.09436816 49.24463943 -0.09336853 47.74391174 C-0.08954352 43.78681774 -0.0797134 39.82976022 -0.06866455 35.87268066 C-0.05665533 31.1286825 -0.05204811 26.38467215 -0.04621124 21.64066315 C-0.03650162 14.42708336 -0.01734498 7.21358369 0 0 Z " fill="#FEFEFE" transform="translate(134,126)"/>
<path d="M0 0 C18.15 0 36.3 0 55 0 C55 9.9 55 19.8 55 30 C50.05 31.485 50.05 31.485 45 33 C41.87554504 34.20213256 38.78802555 35.42891849 35.703125 36.72265625 C34.44722565 37.24187904 34.44722565 37.24187904 33.16595459 37.77159119 C30.52539242 38.86401925 27.88755492 39.96283356 25.25 41.0625 C22.59776678 42.16474246 19.94495987 43.26556163 17.29119873 44.36412048 C15.64963412 45.04401958 14.00899447 45.72615776 12.3694458 46.41090393 C11.62136658 46.72140182 10.87328735 47.03189972 10.10253906 47.35180664 C9.45319397 47.62255508 8.80384888 47.89330353 8.13482666 48.17225647 C5.45821841 49.2100668 2.72344521 50.09218493 0 51 C0 34.17 0 17.34 0 0 Z " fill="#FEFEFE" transform="translate(75,160)"/>
<path d="M0 0 C6.27 0 12.54 0 19 0 C19 6.27 19 12.54 19 19 C18.67 19 18.34 19 18 19 C17.82984375 18.40832031 17.6596875 17.81664063 17.484375 17.20703125 C15.58959682 11.02884495 13.83303879 6.68776779 8.0625 3.25 C5.33362044 2.13617161 2.90647107 1.42742222 0 1 C0 0.67 0 0.34 0 0 Z " fill="#FCEBFC" transform="translate(331,0)"/>
<path d="M0 0 C0.33 0 0.66 0 1 0 C1 5.28 1 10.56 1 16 C-3.95 16 -8.9 16 -14 16 C-12 14 -12 14 -8.625 12.3125 C-3.5959157 9.52554912 -1.79277516 5.37832548 0 0 Z " fill="#F9F8FC" transform="translate(349,334)"/>
<path d="M0 0 C1.02919745 1.54379618 2.05484092 3.0916141 3.0078125 4.68359375 C6.17248178 9.65190321 9.57201726 11.83150069 15 14 C15 14.33 15 14.66 15 15 C10.05 15 5.1 15 0 15 C0 10.05 0 5.1 0 0 Z " fill="#FAFAFC" transform="translate(0,335)"/>
<path d="M0 0 C4.95 0 9.9 0 15 0 C13.45620382 1.02919745 11.9083859 2.05484092 10.31640625 3.0078125 C5.34809679 6.17248178 3.16849931 9.57201726 1 15 C0.67 15 0.34 15 0 15 C0 10.05 0 5.1 0 0 Z " fill="#FCFBFD" transform="translate(0,0)"/>
</svg>
