<?xml version="1.0" encoding="UTF-8"?>
<!DOCTYPE svg PUBLIC "-//W3C//DTD SVG 1.1//EN" "http://www.w3.org/Graphics/SVG/1.1/DTD/svg11.dtd">
<!-- Creator: CorelDRAW X7 -->
<svg xmlns="http://www.w3.org/2000/svg" xml:space="preserve" width="211.667mm" height="99.6847mm" version="1.1" style="shape-rendering:geometricPrecision; text-rendering:geometricPrecision; image-rendering:optimizeQuality; fill-rule:evenodd; clip-rule:evenodd"
viewBox="0 0 5668 2669"
 xmlns:xlink="http://www.w3.org/1999/xlink">
 <defs>
  <style type="text/css">
   <![CDATA[
    .fil0 {fill:none}
    .fil2 {fill:#33879E;fill-rule:nonzero}
    .fil1 {fill:#524F54;fill-rule:nonzero}
    .fil3 {fill:#C9471F;fill-rule:nonzero}
   ]]>
  </style>
 </defs>
 <g id="Warstwa_x0020_1">
  <metadata id="CorelCorpID_0Corel-Layer"/>
  <g id="_2728798608032">
   <rect class="fil0" width="5668" height="2669"/>
   <path class="fil1" d="M1347 1655c17,40 15,100 41,132 2,1 5,3 7,4 154,-9 162,-183 87,-264 -34,-32 -82,-45 -140,-20 -305,131 -596,47 -772,-134 -97,-95 -160,-218 -176,-352 -51,-426 299,-695 539,-724 216,-27 416,48 553,188 148,147 226,368 179,621 -22,117 -91,262 -246,262 -64,0 -125,-27 -168,-73 -40,-38 -68,-90 -71,-151 -15,-229 281,-293 261,-523 -3,-42 -21,-77 -50,-107 -90,-86 -270,-119 -434,-86 -203,42 -398,226 -432,447 -27,179 36,384 169,521 119,117 290,182 501,134 68,-16 119,-80 231,-62 40,6 72,24 95,50 89,82 75,257 -41,297 -60,21 -168,4 -216,-49 -1,0 -1,0 -2,-1 -6,-3 -11,-8 -16,-13 -19,-16 -31,-46 -29,-79 4,-48 34,-85 68,-82 14,0 26,8 36,19 12,10 21,26 26,45z"/>
   <path class="fil2" d="M2892 730c-9,1 -19,3 -31,7 -12,3 -23,9 -34,15 -13,8 -23,17 -31,27 -8,11 -14,25 -21,44 -25,84 -56,183 -90,295 -34,113 -71,233 -111,361l-51 0 -196 -599 -204 599 -49 0c-35,-128 -73,-261 -112,-398 -38,-138 -64,-230 -77,-277 -4,-11 -9,-21 -15,-30 -6,-9 -15,-17 -26,-24 -9,-6 -20,-11 -32,-14 -12,-3 -24,-5 -33,-6l0 -39 317 0 0 39c-28,2 -51,4 -71,9 -20,4 -29,10 -29,20 0,3 0,8 1,14 1,6 2,11 3,15 9,32 24,85 45,159 21,74 53,185 95,333l194 -578 54 0 195 590c27,-90 49,-170 68,-238 19,-68 35,-125 47,-174 9,-34 15,-57 17,-70 2,-12 3,-23 3,-31 0,-13 -8,-23 -25,-32 -17,-8 -45,-14 -83,-17l0 -39 282 0 0 39zm633 153c0,41 -8,77 -24,108 -16,31 -38,57 -66,78 -28,20 -58,35 -91,44 -34,10 -69,15 -106,15l-87 0 0 236c0,12 2,23 6,33 4,10 13,17 26,22 7,3 18,5 35,7 16,2 32,4 46,4l0 39 -334 0 0 -39c8,-1 21,-2 38,-4 17,-1 28,-4 35,-7 11,-5 19,-11 24,-20 4,-10 7,-21 7,-35l0 -562c0,-13 -2,-24 -6,-34 -3,-11 -12,-18 -25,-23 -14,-5 -28,-9 -42,-11 -13,-2 -25,-3 -35,-4l0 -39 355 0c72,0 131,18 176,53 45,35 68,81 68,139zm-167 133c13,-18 21,-36 25,-55 4,-18 6,-35 6,-50 0,-21 -3,-42 -7,-64 -5,-22 -14,-40 -26,-57 -13,-16 -29,-30 -50,-39 -21,-10 -47,-15 -78,-15l-77 0 0 344 56 0c39,0 71,-6 96,-18 24,-13 43,-28 55,-46z"/>
   <path class="fil3" d="M4550 1469l-343 0 0 -39c12,0 28,-2 48,-4 19,-2 32,-5 40,-9 11,-7 20,-15 25,-24 5,-9 8,-20 8,-34l0 -565 -8 0 -266 662 -27 0 -253 -676 -7 0 0 464c0,45 3,80 9,103 5,23 14,40 26,50 8,8 24,15 50,22 25,7 41,11 49,11l0 39 -314 0 0 -39c16,-1 34,-4 52,-8 18,-4 32,-10 41,-18 13,-10 22,-26 27,-47 5,-21 7,-57 7,-106l0 -399c0,-22 -3,-41 -8,-56 -6,-14 -14,-26 -24,-35 -11,-10 -25,-18 -41,-23 -17,-5 -33,-7 -49,-8l0 -39 265 0 222 583 191 -487c7,-18 13,-37 17,-56 5,-20 8,-33 8,-40l254 0 0 39c-10,1 -23,2 -39,5 -16,3 -27,6 -35,8 -12,5 -21,12 -25,22 -4,10 -7,22 -7,34l0 560c0,13 3,24 7,33 4,8 13,16 25,23 7,4 18,7 35,10 17,3 30,5 40,5l0 39zm729 -231l-16 231 -608 0 0 -39c9,-1 21,-2 38,-4 17,-1 28,-4 35,-7 11,-5 19,-11 24,-20 5,-10 7,-21 7,-35l0 -558c0,-12 -2,-23 -6,-32 -4,-10 -13,-18 -25,-23 -9,-5 -20,-9 -35,-13 -16,-5 -28,-7 -38,-8l0 -39 328 0 0 39c-10,1 -23,3 -39,6 -17,3 -28,6 -36,9 -12,4 -21,11 -25,22 -5,10 -7,22 -7,34l0 522c0,24 1,43 3,56 3,14 8,24 17,32 8,6 21,10 38,12 16,3 40,4 69,4 14,0 28,-1 43,-2 14,0 28,-2 41,-4 13,-2 25,-5 36,-9 11,-4 19,-9 24,-15 15,-17 32,-42 52,-76 20,-34 34,-62 41,-83l39 0z"/>
   <path class="fil1" d="M469 2377l0 -210 -80 0 0 -28 192 0 0 28 -80 0 0 210 -32 0zm274 0l-31 0 0 -102c0,-8 0,-16 -1,-23 -1,-7 -2,-12 -4,-17 -3,-4 -6,-8 -11,-10 -4,-2 -10,-3 -17,-3 -8,0 -16,2 -24,6 -7,4 -15,9 -23,16l0 133 -30 0 0 -249 30 0 0 90c9,-8 18,-14 27,-18 9,-4 18,-7 27,-7 18,0 32,6 42,18 10,11 15,28 15,50l0 116zm120 4c-29,0 -51,-8 -67,-24 -16,-16 -24,-39 -24,-68 0,-29 8,-53 23,-70 16,-17 36,-26 60,-26 11,0 21,2 30,5 8,3 16,8 22,15 7,7 12,15 15,25 3,10 5,22 5,37l0 16 -124 0c0,21 5,36 16,47 10,11 25,17 43,17 7,0 13,-1 20,-2 6,-2 12,-4 17,-6 5,-3 10,-5 14,-7 4,-3 7,-5 9,-7l2 0 0 33c-4,1 -8,3 -13,5 -6,2 -10,4 -14,5 -6,2 -12,3 -16,4 -5,1 -11,1 -18,1zm35 -113c0,-8 -1,-15 -3,-21 -2,-6 -4,-11 -7,-15 -4,-4 -8,-8 -14,-10 -5,-2 -12,-4 -20,-4 -8,0 -15,2 -21,4 -6,2 -11,6 -15,10 -5,5 -8,10 -11,16 -2,6 -3,12 -4,20l95 0zm432 -129l-60 238 -36 0 -48 -198 -47 198 -35 0 -61 -238 32 0 48 197 48 -197 32 0 48 200 48 -200 31 0zm161 149c0,30 -8,53 -22,69 -15,17 -34,25 -58,25 -25,0 -44,-8 -59,-25 -14,-17 -21,-40 -21,-69 0,-30 7,-53 22,-70 15,-16 34,-25 58,-25 24,0 43,9 58,25 14,17 22,40 22,70zm-31 0c0,-23 -5,-40 -13,-52 -8,-11 -20,-16 -36,-16 -16,0 -28,5 -36,16 -9,12 -13,29 -13,52 0,22 4,39 13,50 8,12 20,18 36,18 15,0 27,-6 36,-17 8,-11 13,-28 13,-51zm156 -57l-1 0c-3,-1 -5,-1 -7,-1 -3,0 -6,0 -9,0 -9,0 -17,1 -25,5 -8,3 -15,9 -22,15l0 127 -30 0 0 -179 30 0 0 27c11,-10 20,-17 28,-21 9,-4 16,-6 24,-6 3,0 6,0 7,1 2,0 3,0 5,0l0 32zm160 146l-30 0 0 -18c-5,4 -9,7 -12,10 -4,2 -8,4 -12,7 -5,2 -9,3 -14,4 -4,1 -10,2 -16,2 -9,0 -18,-2 -27,-6 -8,-4 -15,-10 -21,-18 -6,-8 -10,-17 -14,-29 -3,-12 -4,-25 -4,-40 0,-16 2,-29 6,-41 4,-11 9,-21 17,-30 6,-7 14,-14 23,-18 10,-4 19,-7 30,-7 8,0 16,1 23,3 7,2 14,5 21,10l0 -78 30 0 0 249zm-30 -44l0 -102c-7,-4 -14,-6 -20,-8 -6,-1 -13,-2 -20,-2 -15,0 -27,6 -36,18 -9,11 -13,28 -13,50 0,21 3,37 10,48 7,11 18,16 32,16 8,0 16,-1 24,-5 8,-4 16,-8 23,-15zm226 -122c0,10 -2,20 -5,29 -4,9 -9,17 -16,24 -8,8 -17,14 -28,18 -11,4 -25,6 -42,6l-27 0 0 89 -32 0 0 -238 60 0c14,0 26,1 36,3 10,3 18,6 26,12 9,6 16,13 21,23 5,9 7,20 7,34zm-33 0c0,-8 -1,-15 -4,-21 -3,-6 -7,-11 -13,-15 -5,-3 -11,-5 -17,-7 -7,-1 -15,-2 -25,-2l-26 0 0 95 21 0c13,0 23,-1 31,-3 8,-2 14,-6 20,-11 4,-5 8,-10 10,-16 2,-6 3,-12 3,-20zm156 20l-2 0c-2,-1 -4,-1 -7,-1 -2,0 -5,0 -9,0 -8,0 -16,1 -24,5 -8,3 -16,9 -23,15l0 127 -30 0 0 -179 30 0 0 27c11,-10 21,-17 29,-21 8,-4 16,-6 24,-6 3,0 5,0 7,1 1,0 3,0 5,0l0 32zm99 150c-28,0 -50,-8 -66,-24 -16,-16 -24,-39 -24,-68 0,-29 8,-53 23,-70 15,-17 35,-26 60,-26 11,0 21,2 30,5 8,3 16,8 22,15 7,7 12,15 15,25 3,10 5,22 5,37l0 16 -124 0c0,21 5,36 16,47 10,11 25,17 43,17 7,0 13,-1 20,-2 6,-2 12,-4 17,-6 5,-3 10,-5 14,-7 3,-3 7,-5 9,-7l2 0 0 33c-4,1 -8,3 -13,5 -6,2 -10,4 -14,5 -6,2 -12,3 -16,4 -5,1 -11,1 -19,1zm36 -113c0,-8 -1,-15 -3,-21 -2,-6 -4,-11 -7,-15 -4,-4 -8,-8 -14,-10 -6,-2 -12,-4 -21,-4 -8,0 -14,2 -20,4 -6,2 -11,6 -15,10 -5,5 -8,10 -11,16 -2,6 -4,12 -4,20l95 0zm108 113c-12,0 -23,-2 -34,-5 -10,-3 -19,-6 -25,-10l0 -34 1 0c3,2 6,4 9,7 4,2 8,5 14,8 5,2 11,4 17,6 6,2 12,3 19,3 4,0 10,-1 15,-2 5,-1 9,-2 12,-4 4,-3 6,-5 8,-8 2,-3 3,-7 3,-13 0,-7 -2,-12 -6,-16 -4,-3 -11,-7 -21,-9 -3,-1 -8,-2 -15,-3 -6,-2 -12,-3 -17,-4 -13,-4 -23,-10 -30,-19 -6,-8 -9,-18 -9,-30 0,-16 6,-29 18,-39 13,-10 29,-15 49,-15 10,0 20,1 30,3 10,3 18,6 25,10l0 32 -1 0c-8,-6 -17,-11 -26,-15 -9,-3 -19,-5 -28,-5 -10,0 -19,2 -25,6 -7,4 -11,11 -11,19 0,8 2,13 6,17 4,4 11,7 20,9 4,1 9,2 14,3 6,2 12,3 18,4 13,4 23,9 30,17 6,8 10,18 10,31 0,8 -2,15 -5,22 -3,7 -7,13 -13,18 -7,5 -14,9 -22,12 -8,3 -18,4 -30,4zm146 0c-12,0 -23,-2 -33,-5 -11,-3 -19,-6 -26,-10l0 -34 1 0c3,2 6,4 9,7 4,2 9,5 14,8 5,2 11,4 17,6 6,2 12,3 19,3 5,0 10,-1 15,-2 6,-1 10,-2 12,-4 4,-3 7,-5 8,-8 2,-3 3,-7 3,-13 0,-7 -2,-12 -6,-16 -4,-3 -10,-7 -20,-9 -4,-1 -9,-2 -15,-3 -6,-2 -12,-3 -17,-4 -14,-4 -24,-10 -30,-19 -6,-8 -9,-18 -9,-30 0,-16 6,-29 18,-39 12,-10 28,-15 48,-15 10,0 20,1 30,3 10,3 19,6 26,10l0 32 -2 0c-8,-6 -16,-11 -26,-15 -9,-3 -19,-5 -28,-5 -10,0 -18,2 -25,6 -7,4 -10,11 -10,19 0,8 2,13 6,17 4,4 10,7 19,9 4,1 9,2 15,3 5,2 11,3 17,4 13,4 23,9 30,17 7,8 10,18 10,31 0,8 -1,15 -4,22 -4,7 -8,13 -14,18 -6,5 -13,9 -21,12 -9,3 -19,4 -31,4zm407 -4l-31 0 0 -205 -62 139 -20 0 -61 -139 0 205 -30 0 0 -238 43 0 60 132 57 -132 44 0 0 238zm186 0l-30 0 0 -20c-10,8 -18,14 -27,19 -8,4 -17,6 -28,6 -7,0 -15,-1 -22,-4 -6,-2 -12,-6 -18,-12 -5,-6 -9,-13 -12,-21 -2,-8 -4,-19 -4,-31l0 -116 30 0 0 102c0,10 1,18 1,24 1,6 3,11 5,16 3,5 6,8 10,10 4,2 10,3 18,3 8,0 16,-2 24,-6 8,-4 16,-9 23,-15l0 -134 30 0 0 179zm74 0l-30 0 0 -249 30 0 0 249zm99 4c-17,0 -29,-5 -39,-14 -9,-10 -13,-24 -13,-44l0 -99 -21 0 0 -26 21 0 0 -51 30 0 0 51 55 0 0 26 -55 0 0 85c0,9 0,16 0,20 1,5 2,10 4,14 2,4 5,7 9,9 4,2 9,2 16,2 5,0 10,0 15,-2 4,-1 7,-2 9,-3l2 0 0 27c-5,1 -11,2 -17,3 -6,1 -11,2 -16,2zm87 -4l-31 0 0 -179 31 0 0 179zm2 -209l-35 0 0 -31 35 0 0 31zm73 209l-30 0 0 -249 30 0 0 249zm75 0l-30 0 0 -179 30 0 0 179zm2 -209l-34 0 0 -31 34 0 0 31zm182 209l-30 0 0 -102c0,-8 0,-16 -1,-23 -1,-7 -2,-12 -4,-17 -3,-4 -6,-8 -11,-10 -4,-2 -10,-3 -18,-3 -7,0 -15,2 -23,6 -8,4 -15,9 -23,16l0 133 -30 0 0 -179 30 0 0 20c9,-8 18,-14 27,-18 8,-4 18,-7 27,-7 18,0 32,6 42,18 10,11 14,28 14,50l0 116zm151 -48l0 -98c-8,-4 -15,-7 -21,-8 -7,-2 -13,-2 -19,-2 -16,0 -28,5 -36,16 -9,12 -14,28 -14,49 0,19 4,34 10,45 7,10 18,15 33,15 8,0 16,-1 24,-4 8,-3 16,-8 23,-13zm-102 77c2,0 5,2 9,3 4,1 8,3 13,4 6,1 11,2 16,3 5,1 10,1 15,1 10,0 18,-1 24,-3 7,-3 12,-6 15,-10 4,-5 6,-10 7,-15 2,-6 3,-13 3,-20l0 -16c-9,8 -17,13 -24,16 -8,3 -18,5 -30,5 -20,0 -36,-7 -49,-23 -12,-15 -18,-36 -18,-65 0,-15 2,-28 7,-39 4,-12 9,-22 16,-30 7,-7 15,-13 24,-17 10,-4 19,-7 29,-7 9,0 17,2 24,4 7,2 14,5 21,9l1 -8 29 0 0 159c0,30 -7,52 -20,66 -13,15 -34,22 -61,22 -9,0 -18,-1 -27,-2 -9,-2 -18,-4 -26,-6l0 -31 2 0zm315 -29l-31 0 0 -20c-9,8 -18,14 -26,19 -8,4 -18,6 -28,6 -8,0 -15,-1 -22,-4 -7,-2 -13,-6 -18,-12 -5,-6 -9,-13 -12,-21 -3,-8 -4,-19 -4,-31l0 -116 30 0 0 102c0,10 0,18 1,24 1,6 2,11 5,16 2,5 6,8 10,10 4,2 10,3 18,3 7,0 15,-2 24,-6 8,-4 16,-9 22,-15l0 -134 31 0 0 179zm142 -44l0 -49c-7,0 -16,1 -27,2 -10,1 -19,3 -26,5 -8,2 -15,6 -20,11 -5,5 -8,12 -8,21 0,10 3,18 9,23 6,6 14,8 25,8 10,0 18,-2 26,-6 8,-4 15,-9 21,-15zm0 25c-2,2 -5,4 -9,8 -4,3 -8,5 -12,7 -6,3 -11,5 -16,7 -5,1 -12,2 -21,2 -7,0 -14,-1 -20,-4 -7,-3 -13,-7 -18,-12 -5,-5 -8,-11 -11,-18 -3,-7 -5,-15 -5,-23 0,-12 3,-23 8,-31 5,-9 14,-16 25,-21 10,-5 22,-8 35,-10 14,-1 29,-3 44,-4l0 -5c0,-8 -1,-13 -3,-18 -2,-4 -5,-7 -9,-10 -4,-2 -8,-4 -14,-5 -5,-1 -11,-1 -17,-1 -7,0 -15,1 -24,3 -10,2 -19,5 -28,9l-2 0 0 -30c5,-2 13,-3 24,-5 10,-2 20,-3 30,-3 13,0 23,1 32,3 8,2 16,5 22,10 7,5 12,11 15,19 3,8 5,17 5,29l0 122 -31 0 0 -19zm104 19l-30 0 0 -249 30 0 0 249zm299 -166c0,10 -2,20 -5,29 -4,9 -9,17 -16,24 -8,8 -17,14 -29,18 -11,4 -25,6 -41,6l-27 0 0 89 -32 0 0 -238 60 0c14,0 26,1 36,3 10,3 18,6 26,12 9,6 16,13 21,23 5,9 7,20 7,34zm-33 0c0,-8 -1,-15 -4,-21 -3,-6 -7,-11 -13,-15 -5,-3 -11,-5 -17,-7 -7,-1 -15,-2 -25,-2l-26 0 0 95 21 0c13,0 23,-1 31,-3 8,-2 14,-6 20,-11 4,-5 8,-10 10,-16 2,-6 3,-12 3,-20zm92 166l-30 0 0 -249 30 0 0 249zm184 0l-30 0 0 -20c-10,8 -19,14 -27,19 -8,4 -17,6 -28,6 -8,0 -15,-1 -22,-4 -7,-2 -13,-6 -18,-12 -5,-6 -9,-13 -12,-21 -3,-8 -4,-19 -4,-31l0 -116 30 0 0 102c0,10 1,18 1,24 1,6 3,11 5,16 2,5 6,8 10,10 4,2 10,3 18,3 8,0 15,-2 24,-6 8,-4 16,-9 23,-15l0 -134 30 0 0 179zm151 -48l0 -98c-8,-4 -15,-7 -21,-8 -6,-2 -13,-2 -19,-2 -15,0 -27,5 -36,16 -9,12 -13,28 -13,49 0,19 3,34 10,45 6,10 17,15 32,15 8,0 16,-1 24,-4 9,-3 16,-8 23,-13zm-102 77c2,0 5,2 9,3 4,1 9,3 14,4 5,1 10,2 15,3 5,1 10,1 16,1 9,0 17,-1 23,-3 7,-3 12,-6 15,-10 4,-5 6,-10 8,-15 1,-6 2,-13 2,-20l0 -16c-8,8 -16,13 -24,16 -8,3 -18,5 -30,5 -20,0 -36,-7 -48,-23 -12,-15 -19,-36 -19,-65 0,-15 3,-28 7,-39 4,-12 10,-22 17,-30 6,-7 14,-13 24,-17 9,-4 18,-7 28,-7 9,0 18,2 24,4 7,2 14,5 21,9l2 -8 28 0 0 159c0,30 -7,52 -20,66 -13,15 -34,22 -61,22 -9,0 -18,-1 -27,-2 -9,-2 -18,-4 -25,-6l0 -31 1 0zm206 -29l-30 0 0 -179 30 0 0 179zm3 -209l-35 0 0 -31 35 0 0 31zm182 209l-30 0 0 -102c0,-8 -1,-16 -2,-23 0,-7 -2,-12 -4,-17 -3,-4 -6,-8 -10,-10 -5,-2 -11,-3 -18,-3 -8,0 -15,2 -23,6 -8,4 -16,9 -24,16l0 133 -30 0 0 -179 30 0 0 20c9,-8 18,-14 27,-18 9,-4 18,-7 28,-7 17,0 31,6 41,18 10,11 15,28 15,50l0 116z"/>
  </g>
 </g>
</svg>
