<svg id="logosandtypes_com" data-name="logosandtypes com" xmlns="http://www.w3.org/2000/svg" viewBox="0 0 150 150"><defs><style>.cls-1{fill:none;}.cls-2{fill:#7e67ee;}</style></defs><path class="cls-1" d="M0,.2H150v150H0Z" transform="translate(0 -0.2)"/><path class="cls-2" d="M138.58,74.47a63.18,63.18,0,1,0-34.37,56.26,22.55,22.55,0,0,0,34.37-18.92,22,22,0,0,0-4.64-13.54A63,63,0,0,0,138.58,74.47ZM75.37,126.9c-27.91,0-50.53-23.47-50.53-52.43S47.46,22,75.37,22,125.9,45.5,125.9,74.47a53.93,53.93,0,0,1-2.49,16.28,22.76,22.76,0,0,0-7.33-1.21,22.39,22.39,0,0,0-22.5,22.27,22,22,0,0,0,2.62,10.44A48.73,48.73,0,0,1,75.37,126.9Zm55.29-15.06a14.45,14.45,0,0,1-14.58,14.32,14.9,14.9,0,0,1-3.68-.46,14.52,14.52,0,0,1-9.32-7.38,14,14,0,0,1-1.58-6.48,14.45,14.45,0,0,1,14.58-14.32,15,15,0,0,1,4.37.65,14.54,14.54,0,0,1,9.27,8.59A14.06,14.06,0,0,1,130.66,111.84Z" transform="translate(0 -0.2)"/></svg>